<svg width="800" height="500" xmlns="http://www.w3.org/2000/svg">
  <!-- Background -->
  <rect width="800" height="500" fill="#f8fafc" />
  
  <!-- Base -->
  <rect x="300" y="400" width="200" height="30" fill="#1E293B" />
  
  <!-- Column -->
  <rect x="375" y="150" width="50" height="250" fill="#64748B" />
  
  <!-- Head -->
  <rect x="350" y="100" width="100" height="50" fill="#475569" />
  
  <!-- Motor Housing -->
  <rect x="325" y="50" width="150" height="50" fill="#334155" />
  <circle cx="400" cy="75" r="15" fill="#64748B" />
  
  <!-- Spindle -->
  <rect x="390" y="150" width="20" height="150" fill="#334155" />
  
  <!-- Drill Bit -->
  <polygon points="400,300 390,350 410,350" fill="#0EA5E9" />
  
  <!-- Table -->
  <rect x="300" y="350" width="200" height="20" fill="#475569" />
  
  <!-- Workpiece -->
  <rect x="350" y="350" width="100" height="10" fill="#E25822" />
  
  <!-- Control Panel -->
  <rect x="450" y="200" width="50" height="80" fill="#0EA5E9" />
  <circle cx="475" cy="230" r="10" fill="#F8FAFC" />
  <circle cx="475" cy="260" r="10" fill="#F8FAFC" />
  
  <!-- Depth Gauge -->
  <rect x="300" y="200" width="50" height="80" fill="#475569" />
  <line x1="325" y1="210" x2="325" y2="270" stroke="#F8FAFC" stroke-width="2" />
  <line x1="320" y1="210" x2="330" y2="210" stroke="#F8FAFC" stroke-width="2" />
  <line x1="320" y1="240" x2="330" y2="240" stroke="#F8FAFC" stroke-width="2" />
  <line x1="320" y1="270" x2="330" y2="270" stroke="#F8FAFC" stroke-width="2" />
  
  <!-- Handle -->
  <circle cx="300" cy="150" r="15" fill="#475569" />
  <line x1="300" y1="150" x2="375" y2="150" stroke="#475569" stroke-width="10" />
  
  <!-- Title -->
  <text x="400" y="50" font-family="Arial" font-size="24" text-anchor="middle" fill="#1E293B">Drilling Machine</text>
  
  <!-- Navneet Industries Logo -->
  <text x="400" y="450" font-family="Arial" font-size="18" text-anchor="middle" fill="#1E293B">Navneet Industries</text>
</svg>
