<svg width="800" height="500" xmlns="http://www.w3.org/2000/svg">
  <!-- Background -->
  <rect width="800" height="500" fill="#f8fafc" />

  <!-- Machine Base -->
  <rect x="150" y="350" width="500" height="50" fill="#1E293B" />

  <!-- Column -->
  <rect x="350" y="150" width="100" height="200" fill="#64748B" />

  <!-- Head -->
  <rect x="300" y="100" width="200" height="50" fill="#475569" />

  <!-- Spindle -->
  <rect x="375" y="150" width="50" height="100" fill="#334155" />
  <rect x="385" y="250" width="30" height="30" fill="#0EA5E9" />

  <!-- Table -->
  <rect x="250" y="300" width="300" height="50" fill="#475569" />

  <!-- Workpiece -->
  <rect x="350" y="280" width="100" height="20" fill="#E25822" />

  <!-- Control Panel -->
  <rect x="500" y="200" width="80" height="100" fill="#0EA5E9" />
  <rect x="510" y="220" width="60" height="30" fill="#F8FAFC" />
  <circle cx="525" cy="270" r="10" fill="#F8FAFC" />
  <circle cx="555" cy="270" r="10" fill="#F8FAFC" />

  <!-- X-Axis -->
  <line x1="250" y1="325" x2="550" y2="325" stroke="#0EA5E9" stroke-width="2" />
  <polygon points="550,325 540,320 540,330" fill="#0EA5E9" />
  <text x="400" y="340" font-family="Arial" font-size="12" text-anchor="middle" fill="#0EA5E9">X-Axis</text>

  <!-- Y-Axis -->
  <line x1="400" y1="300" x2="400" y2="200" stroke="#0EA5E9" stroke-width="2" />
  <polygon points="400,200 395,210 405,210" fill="#0EA5E9" />
  <text x="420" y="250" font-family="Arial" font-size="12" text-anchor="middle" fill="#0EA5E9">Y-Axis</text>

  <!-- Z-Axis -->
  <line x1="450" y1="250" x2="500" y2="250" stroke="#0EA5E9" stroke-width="2" />
  <polygon points="500,250 490,245 490,255" fill="#0EA5E9" />
  <text x="475" y="240" font-family="Arial" font-size="12" text-anchor="middle" fill="#0EA5E9">Z-Axis</text>


</svg>
